<svg xmlns="http://www.w3.org/2000/svg" xmlns:xlink="http://www.w3.org/1999/xlink" width="375" height="354" viewBox="0 0 375 354">
  <defs>
    <clipPath id="clip-Empty_Notification_design">
      <rect width="375" height="354"/>
    </clipPath>
  </defs>
  <g id="Empty_Notification_design" data-name="Empty Notification design" clip-path="url(#clip-Empty_Notification_design)">
    <g id="Group_351" data-name="Group 351" transform="translate(-34.598 -153.427)">
      <g id="Group_14" data-name="Group 14" transform="translate(40.279 183.752)">
        <g id="Group_11" data-name="Group 11" transform="matrix(0.914, 0.407, -0.407, 0.914, 220.013, 161.771)">
          <path id="Path_135" data-name="Path 135" d="M154.333,42.262H2.806A2.78,2.78,0,0,1,0,39.517V2.745A2.779,2.779,0,0,1,2.806,0H154.333a2.78,2.78,0,0,1,2.806,2.745V39.516a2.78,2.78,0,0,1-2.806,2.745ZM2.806,1.1A1.668,1.668,0,0,0,1.124,2.741V39.513a1.668,1.668,0,0,0,1.682,1.646H154.333a1.667,1.667,0,0,0,1.682-1.646V2.745A1.668,1.668,0,0,0,154.333,1.1Z" transform="translate(0 0)" fill="#e6e6e6"/>
          <circle id="Ellipse_17" data-name="Ellipse 17" cx="11.182" cy="11.182" r="11.182" transform="translate(14.596 8.538)" fill="#e6e6e6"/>
          <path id="Path_136" data-name="Path 136" d="M1.864,0a1.864,1.864,0,1,0,0,3.727h87.86a1.864,1.864,0,1,0,0-3.727Z" transform="translate(53.152 12.265)" fill="#e6e6e6"/>
          <path id="Path_137" data-name="Path 137" d="M1.864,0a1.864,1.864,0,1,0,0,3.727H39.67A1.864,1.864,0,0,0,39.67,0Z" transform="translate(51.253 23.447)" fill="#e6e6e6"/>
        </g>
        <g id="Group_9" data-name="Group 9" transform="translate(0 175.609)">
          <path id="Path_141" data-name="Path 141" d="M684.655,311.121H536.419a2.748,2.748,0,0,1-2.745-2.745V181.614a2.748,2.748,0,0,1,2.745-2.745H684.655a2.749,2.749,0,0,1,2.745,2.745V308.376a2.748,2.748,0,0,1-2.745,2.745ZM536.419,179.965a1.649,1.649,0,0,0-1.646,1.646V308.376a1.649,1.649,0,0,0,1.646,1.646H684.655a1.649,1.649,0,0,0,1.646-1.646V181.614a1.649,1.649,0,0,0-1.646-1.646Z" transform="translate(-533.674 -178.869)" fill="#e6e6e6"/>
          <circle id="Ellipse_19" data-name="Ellipse 19" cx="11.182" cy="11.182" r="11.182" transform="translate(12.595 99.528)" fill="#e6e6e6"/>
          <path id="Path_143" data-name="Path 143" d="M632.263,399.466a1.864,1.864,0,0,0,0,3.727H670.07a1.864,1.864,0,1,0,0-3.727Z" transform="translate(-579.59 -290.619)" fill="#e6e6e6"/>
          <path id="Path_154" data-name="Path 154" d="M776.69,283.435H605.335a2.986,2.986,0,0,1-3.173-2.745V215.636a2.986,2.986,0,0,1,3.173-2.745H776.69a2.986,2.986,0,0,1,3.173,2.745V280.69A2.986,2.986,0,0,1,776.69,283.435Z" transform="translate(-576.384 -195.396)" fill="#f0413a"/>
          <path id="Path_156" data-name="Path 156" d="M665.386,277.985c-1.548,0-2.8.834-2.8,1.864s1.255,1.864,2.8,1.864H797.573c1.548,0,2.8-.834,2.8-1.864s-1.256-1.864-2.8-1.864Z" transform="translate(-614.674 -225.218)" fill="#fff"/>
          <path id="Path_157" data-name="Path 157" d="M667.911,298.731c-2.943,0-5.329.834-5.329,1.864s2.386,1.864,5.329,1.864H776.02c2.943,0,5.329-.834,5.329-1.864s-2.386-1.864-5.329-1.864Z" transform="translate(-632.622 -233.432)" fill="#fff"/>
        </g>
        <g id="Group_10" data-name="Group 10" transform="translate(195.679 264.354)">
          <path id="Path_138" data-name="Path 138" d="M746.953,575.131H592.533a2.808,2.808,0,0,1-2.859-2.745V535.614a2.808,2.808,0,0,1,2.859-2.745h154.42a2.808,2.808,0,0,1,2.859,2.745v36.771A2.808,2.808,0,0,1,746.953,575.131Zm-154.42-41.166a1.685,1.685,0,0,0-1.714,1.646v36.771a1.685,1.685,0,0,0,1.714,1.646h154.42a1.684,1.684,0,0,0,1.714-1.646V535.614a1.684,1.684,0,0,0-1.714-1.646Z" transform="translate(-589.674 -532.869)" fill="#e6e6e6"/>
          <circle id="Ellipse_18" data-name="Ellipse 18" cx="11.182" cy="11.182" r="11.182" transform="translate(14.596 8.538)" fill="#e6e6e6"/>
          <path id="Path_139" data-name="Path 139" d="M688.263,556.72a1.864,1.864,0,1,0,0,3.727h87.859a1.864,1.864,0,1,0,0-3.727Z" transform="translate(-630.247 -544.455)" fill="#e6e6e6"/>
          <path id="Path_140" data-name="Path 140" d="M688.263,578.466a1.864,1.864,0,1,0,0,3.727H726.07a1.864,1.864,0,0,0,0-3.727Z" transform="translate(-633.817 -555.019)" fill="#e6e6e6"/>
        </g>
        <g id="Group_12" data-name="Group 12" transform="matrix(0.996, -0.087, 0.087, 0.996, 61.602, 133.367)">
          <path id="Path_138-2" data-name="Path 138" d="M171.468,42.262H3.117A2.953,2.953,0,0,1,0,39.517V2.745A2.953,2.953,0,0,1,3.117,0h168.35a2.953,2.953,0,0,1,3.117,2.745V39.516a2.953,2.953,0,0,1-3.117,2.745ZM3.117,1.1A1.772,1.772,0,0,0,1.249,2.741V39.513a1.772,1.772,0,0,0,1.869,1.646h168.35a1.771,1.771,0,0,0,1.869-1.646V2.745A1.771,1.771,0,0,0,171.468,1.1Z" transform="translate(0 0)" fill="#e6e6e6"/>
          <circle id="Ellipse_18-2" data-name="Ellipse 18" cx="11.182" cy="11.182" r="11.182" transform="translate(14.596 8.538)" fill="#e6e6e6"/>
          <path id="Path_140-2" data-name="Path 140" d="M4.551,0C2.038,0,0,.834,0,1.864S2.038,3.727,4.551,3.727H96.878c2.513,0,4.551-.834,4.551-1.864S99.391,0,96.878,0Z" transform="translate(58.9 24.444)" fill="#e6e6e6"/>
        </g>
        <g id="Group_13" data-name="Group 13" transform="translate(143.436 0)">
          <circle id="Ellipse_21" data-name="Ellipse 21" cx="16.97" cy="16.97" r="16.97" transform="translate(27.284 8.85)" fill="#2f2e41"/>
          <circle id="Ellipse_22" data-name="Ellipse 22" cx="12.63" cy="12.63" r="12.63" transform="translate(31.968 19.029)" fill="#fabfa4"/>
          <path id="Path_159" data-name="Path 159" d="M867.031,628.286s-23.14-4.114-38.053,1.028l4.371,34.711-1.029,5.656,30.854-1.028L861.117,663Z" transform="translate(-803.236 -578.297)" fill="#fabfa4"/>
          <path id="Path_160" data-name="Path 160" d="M852.974,665.274a155.586,155.586,0,0,1-15.941-1.01,4.367,4.367,0,0,1-3.888-4.446l.375-16.233.044-.063c4.471-6.476,2.293-11.206.617-13.752a3.29,3.29,0,0,1-.541-1.811h0c-.257-.36-.315.208-.154-.195a1.291,1.291,0,0,1,.944-.791l2.553-.51a1.286,1.286,0,0,1,1.47.849c.858,2.559,4.2,10.794,11.861,10.792,6.4,0,8.788-9.056,8.931-11.149a1.286,1.286,0,0,1,1.282-1.194h3.188a1.346,1.346,0,0,1,1.063.48,1.276,1.276,0,0,1,.125,1.415c-3.639,6.69,1.679,17.278,1.733,17.381l.034.067-1.5,15.578a4.392,4.392,0,0,1-3.38,3.845A41.2,41.2,0,0,1,852.974,665.274Z" transform="translate(-805.26 -577.827)" fill="#e67300"/>
          <path id="Path_161" data-name="Path 161" d="M800.367,740.327a27.828,27.828,0,0,1-9.133-1.28c-2.988-1.069-4.864-2.8-5.576-5.142a6.788,6.788,0,0,1,.826-6c4.42-6.618,19.757-8.485,21.815-8.706l1.09-9.085a4.387,4.387,0,0,1,4.272-3.85l25.831-.4a4.33,4.33,0,0,1,4.371,3.588l1.468,8.073-16.938,8.215,2.561,7.171-.167.112C825.83,736.322,811.574,740.326,800.367,740.327Z" transform="translate(-782.02 -616.736)" fill="#2f2e41"/>
          <path id="Path_162" data-name="Path 162" d="M874.161,725.934s23.655-3.085,22.112,9.256-19.541,21.084-46.795,0l3.085-6.171s15.427,4.114,21.6,1.029Z" transform="translate(-813.195 -626.322)" fill="#2f2e41"/>
          <path id="Path_163" data-name="Path 163" d="M836.97,729.886s0-6.171-5.142-5.657-14.4,1.028-14.4,1.028-3.085,2.057,1.028,3.086,16.455,6.171,16.455,6.171Z" transform="translate(-797.087 -625.645)" fill="#fabfa4"/>
          <path id="Path_164" data-name="Path 164" d="M873.478,727.886s0-6.171,5.142-5.656,14.4,1.028,14.4,1.028,3.085,2.057-1.029,3.085-16.455,6.171-16.455,6.171Z" transform="translate(-824.853 -624.674)" fill="#fabfa4"/>
          <path id="Path_165" data-name="Path 165" d="M915.465,681.534l-7.673-26.6s-1.543-9.256-3.085-18-7.2-7.714-7.2-7.714l-1.029.514v13.884l1.029,12.856,10.267,28.231a5.4,5.4,0,1,0,7.691-3.176Z" transform="translate(-836.026 -579.491)" fill="#fabfa4"/>
          <path id="Path_166" data-name="Path 166" d="M812.8,631.223s-5.656-1.029-7.2,7.713-3.085,18-3.085,18l-7.673,26.6a5.4,5.4,0,1,0,7.691,3.176L812.8,658.479l1.028-12.856V632.887A1.86,1.86,0,0,0,812.8,631.223Z" transform="translate(-785.263 -580.463)" fill="#fabfa4"/>
          <path id="Path_167" data-name="Path 167" d="M841.335,572.23a37.563,37.563,0,0,0,16.25,5.354l-1.713-2.052a12.587,12.587,0,0,0,3.888.771,4.258,4.258,0,0,0,3.471-1.624,3.96,3.96,0,0,0,.265-3.659,7.5,7.5,0,0,0-2.36-2.951,14.051,14.051,0,0,0-13.077-2.337,8.4,8.4,0,0,0-3.908,2.505,4.75,4.75,0,0,0-.958,4.4" transform="translate(-809.239 -548.33)" fill="#2f2e41"/>
          <path id="Path_168" data-name="Path 168" d="M824.771,543.281a38.816,38.816,0,0,0-14.122-9.132,19.871,19.871,0,0,0-10.7-1.328c-3.569.718-6.942,3.188-7.94,6.689-.814,2.863.027,5.947,1.29,8.642s2.951,5.194,3.972,7.991A18.239,18.239,0,0,1,778.92,580.6c3.506.47,6.739,2.118,10.167,3s7.473.818,10.02-1.638c2.7-2.6,2.749-6.822,2.618-10.563l-.581-16.684c-.1-2.836-.183-5.763.84-8.411s3.454-4.965,6.292-4.941c2.151.018,4.054,1.321,5.78,2.606s3.548,2.656,5.693,2.847,4.589-1.394,4.428-3.539" transform="translate(-778.92 -532.547)" fill="#2f2e41"/>
        </g>
        <path id="Path_133" data-name="Path 133" d="M290.931,614.378a81.453,81.453,0,0,1-3.805,22.516c-.051.169-.108.336-.164.5h-14.2c.015-.152.03-.321.045-.5.947-10.884-4.462-76.339-10.989-87.668C262.391,550.145,292.032,579.794,290.931,614.378Z" transform="translate(-52.588 -330.784)" fill="#00b98e"/>
        <path id="Path_134" data-name="Path 134" d="M274.522,674.32c-.119.169-.242.338-.369.505H263.5c.081-.144.174-.313.283-.505,1.76-3.176,6.968-12.672,11.8-22.516,5.194-10.579,9.963-21.559,9.561-25.533C285.272,627.168,288.867,654.491,274.522,674.32Z" transform="translate(-37.244 -368.211)" fill="#00b98e"/>
      </g>
      <text id="You_have_seen_all_notifications._" data-name="You have seen all notifications. " transform="translate(156.303 404.152)" fill="#fff" font-size="11" font-family="Poppins-Medium, Poppins" font-weight="500"><tspan x="-87.065" y="0">You have seen all notifications. </tspan></text>
      <text id="We_ll_ping_if_there_is_any_one." data-name="We’ll ping if there is any one." transform="translate(210.497 323.417) rotate(-5)" fill="#e6e6e6" font-size="8" font-family="Poppins-Medium, Poppins" font-weight="500"><tspan x="-57.208" y="0">We’ll ping if there is any one.</tspan></text>
    </g>
  </g>
</svg>
