<svg xmlns="http://www.w3.org/2000/svg" xmlns:xlink="http://www.w3.org/1999/xlink" width="375" height="394" viewBox="0 0 375 394">
  <defs>
    <clipPath id="clip-No_feed">
      <rect width="375" height="394"/>
    </clipPath>
  </defs>
  <g id="No_feed" data-name="No feed" clip-path="url(#clip-No_feed)">
    <g id="Group_349" data-name="Group 349" transform="translate(-0.5 -149.136)">
      <g id="Group_347" data-name="Group 347" transform="translate(0 177)">
        <text id="You_have_seen_all_publishes._Add_someone_using_search_for_more." data-name="You have seen all publishes. 
Add someone using search for more." transform="translate(188 279)" fill="#464646" font-size="20" font-family="Poppins-Medium, Poppins" font-weight="500"><tspan fill="#000"><tspan x="-130.43" y="0">You have seen all publishes. </tspan></tspan><tspan font-size="16"><tspan x="-135.752" y="27">Add someone using search for more.</tspan></tspan></text>
      </g>
      <g id="Group_348" data-name="Group 348" transform="translate(99.647 189.136)">
        <circle id="Ellipse_109" data-name="Ellipse 109" cx="23.325" cy="23.325" r="23.325" transform="translate(111.111 54.818)" fill="#f67464"/>
        <path id="Path_240" data-name="Path 240" d="M945.442,383.575c.052-.009.09-.045.15-.036a1.98,1.98,0,0,0-.1-.3l-.216.295Z" transform="translate(-747.026 -288.042)" fill="#fff"/>
        <path id="Path_241" data-name="Path 241" d="M440.261,408.587a54.206,54.206,0,0,0,2.532,14.984c.035.113.072.223.109.336h9.45c-.01-.1-.02-.213-.03-.336-.63-7.243-4.263-51.329.081-58.868C452.022,365.315,439.528,385.572,440.261,408.587Z" transform="translate(-398.287 -275.24)" fill="#e6e6e6"/>
        <path id="Path_242" data-name="Path 242" d="M426.117,483.571c.079.113.161.225.245.336h7.089c-.054-.1-.116-.208-.188-.336-1.171-2.114-4.637-8.433-7.855-14.984-3.458-7.04-6.63-14.347-6.363-16.992C418.963,452.191,416.57,470.375,426.117,483.571Z" transform="translate(-383.434 -335.239)" fill="#e6e6e6"/>
        <path id="Path_243" data-name="Path 243" d="M657.019,473.469a47.256,47.256,0,0,1-2.207,13.063c-.031.1-.063.195-.1.293h-8.238c.009-.088.018-.186.026-.293.549-6.315,3.716-44.749-.07-51.322C646.766,435.744,657.658,453.4,657.019,473.469Z" transform="translate(-540.674 -323.926)" fill="#e6e6e6"/>
        <path id="Path_244" data-name="Path 244" d="M664.373,538.841c-.069.1-.141.2-.214.293h-6.18c.047-.083.1-.182.164-.293,1.021-1.843,4.043-7.352,6.848-13.063,3.015-6.138,5.78-12.508,5.547-14.814C670.61,511.484,672.7,527.336,664.373,538.841Z" transform="translate(-548.645 -376.234)" fill="#e6e6e6"/>
        <path id="Path_245" data-name="Path 245" d="M363.472,129.855l3.842-3.073c-2.985-.329-4.211,1.3-4.713,2.587a6.544,6.544,0,0,0-4.87.3l7.687,2.791A5.817,5.817,0,0,0,363.472,129.855Z" transform="translate(-341.321 -110.922)" fill="#3f3d56"/>
        <path id="Path_246" data-name="Path 246" d="M737.357,78.749l3.842-3.073c-2.985-.329-4.211,1.3-4.713,2.587a6.544,6.544,0,0,0-4.87.3l7.687,2.791a5.817,5.817,0,0,0-1.946-2.605Z" transform="translate(-599.493 -75.633)" fill="#3f3d56"/>
        <path id="Path_247" data-name="Path 247" d="M764.408,472.1q0,3.819-.266,7.576A106.5,106.5,0,0,1,744.358,534.5q-2.267,3.164-4.76,6.15a107.548,107.548,0,0,1-14.284,14.188l-22.769-13.361L688.931,509.7s20.312-41.127,75.44-40.381Q764.406,470.705,764.408,472.1Z" transform="translate(-570.018 -347.472)" fill="#3f3d56"/>
        <path id="Path_248" data-name="Path 248" d="M768.539,502.144a107.107,107.107,0,0,1-40.013,76.124l-21.153-12.411L695.3,537.676S714.863,498.067,768.539,502.144Z" transform="translate(-574.416 -369.941)" fill="#f8b5ae"/>
        <path id="Path_249" data-name="Path 249" d="M449.024,567.473q-2.267,3.164-4.76,6.15A107.135,107.135,0,0,1,402.8,604.116q-4.888,2.016-10.007,3.555a117.246,117.246,0,0,1-74.353-4.721,107.482,107.482,0,0,1-53.223-51.915q-2.217-4.662-3.988-9.56c20.588-15.082,61.157-36.679,105.372-15.693q18.346,8.707,32.763,15.874C423.751,553.745,439.983,562.46,449.024,567.473Z" transform="translate(-274.684 -380.448)" fill="#3f3d56"/>
        <path id="Path_250" data-name="Path 250" d="M453.162,592.85a107.169,107.169,0,0,1-179.048-22.589c17.194-13.6,56.853-38.032,100.375-17.378q16.789,7.968,29.977,14.527C430.1,580.113,445.885,588.747,453.162,592.85Z" transform="translate(-283.582 -399.674)" fill="#f8b5ae"/>
        <path id="Path_251" data-name="Path 251" d="M447.969,712.374a108.171,108.171,0,0,1-11.117,5.358,107.211,107.211,0,0,1-126.308-34.521C336.122,680.515,406.826,676.878,447.969,712.374Z" transform="translate(-308.737 -494.064)" fill="#3f3d56"/>
        <path id="Path_252" data-name="Path 252" d="M453.534,736.429A107.212,107.212,0,0,1,334.7,710.765C344.007,709.4,417.049,700.013,453.534,736.429Z" transform="translate(-325.42 -512.76)" fill="#f8b5ae"/>
        <path id="Path_253" data-name="Path 253" d="M507.153,179.986v0c-76.472-56.541-164.087-16.744-164.764-16.439v0a107.111,107.111,0,0,1,164.764,16.439Z" transform="translate(-330.727 -114.748)" fill="#e6e6e6"/>
        <ellipse id="Ellipse_110" data-name="Ellipse 110" cx="23.801" cy="48.564" rx="23.801" ry="48.564" transform="translate(-22.862 35.339) rotate(-10.221)" fill="#3f3d56"/>
        <path id="Path_254" data-name="Path 254" d="M323.573,332.675c-.767-57.978-20.166-112.387-20.361-112.93l-1.769.638c.195.54,19.487,54.664,20.25,112.317Z" transform="translate(-302.453 -175.144)" fill="#aaac47"/>
        <rect id="Rectangle_215" data-name="Rectangle 215" width="1.881" height="24.408" transform="translate(-13.875 74.141) rotate(-72.079)" fill="#aaac47"/>
        <rect id="Rectangle_216" data-name="Rectangle 216" width="24.409" height="1.881" transform="translate(11.255 85.489) rotate(-38.378)" fill="#aaac47"/>
        <ellipse id="Ellipse_111" data-name="Ellipse 111" cx="25.755" cy="52.551" rx="25.755" ry="52.551" transform="translate(54.244 13.242)" fill="#3f3d56"/>
        <path id="Path_255" data-name="Path 255" d="M551.033,289.116c10.315-61.89.1-123.556,0-124.171l-2.007.34c.1.612,10.257,61.954,0,123.5Z" transform="translate(-473.412 -137.304)" fill="#aaac47"/>
        <rect id="Rectangle_217" data-name="Rectangle 217" width="2.035" height="26.412" transform="translate(56.364 56.289) rotate(-61.858)" fill="#aaac47"/>
        <rect id="Rectangle_218" data-name="Rectangle 218" width="26.413" height="2.035" transform="translate(80.947 73.199) rotate(-28.158)" fill="#aaac47"/>
        <path id="Path_256" data-name="Path 256" d="M559.519,329.657A196.34,196.34,0,0,0,530,316.161c-56.37-20.4-112.267-12.536-134.146,16.656,17.027-35.762,77.783-47.007,139.094-24.823a200.209,200.209,0,0,1,20.917,8.936A106.3,106.3,0,0,1,559.519,329.657Z" transform="translate(-367.646 -228.216)" fill="#e6e6e6"/>
        <path id="Path_257" data-name="Path 257" d="M665.876,210.5l3.842-3.073c-2.984-.329-4.211,1.3-4.713,2.587a6.544,6.544,0,0,0-4.87.3l7.687,2.791A5.818,5.818,0,0,0,665.876,210.5Z" transform="translate(-550.134 -166.612)" fill="#3f3d56"/>
      </g>
    </g>
  </g>
</svg>
