<svg xmlns="http://www.w3.org/2000/svg" xmlns:xlink="http://www.w3.org/1999/xlink" width="200" height="200" viewBox="0 0 200 200">
  <defs>
    <clipPath id="clip-Downlike">
      <rect width="200" height="200"/>
    </clipPath>
  </defs>
  <g id="Downlike" clip-path="url(#clip-Downlike)">
    <g id="Polygon_6" data-name="Polygon 6" transform="translate(192 176) rotate(180)" fill="none">
      <path d="M70.081,35.581a25,25,0,0,1,42.837,0l47.27,78.526A25,25,0,0,1,138.77,152H44.23a25,25,0,0,1-21.419-37.893Z" stroke="none"/>
      <path d="M 91.49997711181641 26.47416687011719 C 87.79634094238281 26.47416687011719 84.14484405517578 27.39483642578125 80.94022369384766 29.13662719726562 C 79.28292846679688 30.03741455078125 77.74943542480469 31.15435791015625 76.38236236572266 32.4564208984375 C 74.95359039306641 33.81729125976562 73.6983642578125 35.38899230957031 72.65156555175781 37.12791442871094 L 25.38108825683594 115.6537628173828 C 24.30107116699219 117.4479217529297 23.48239135742188 119.3505325317383 22.94779968261719 121.3087844848633 C 22.43739318847656 123.1783981323242 22.18276977539062 125.1080627441406 22.19099426269531 127.0440979003906 C 22.20689392089844 130.7848510742188 23.20492553710938 134.5129852294922 25.0772705078125 137.8254699707031 C 26.9495849609375 141.1379699707031 29.62893676757812 143.9157867431641 32.82559204101562 145.858642578125 C 34.48007202148438 146.8641967773438 36.26461791992188 147.6412353515625 38.129638671875 148.1681976318359 C 40.08306884765625 148.7201232910156 42.13536071777344 148.9999847412109 44.22952270507812 148.9999847412109 L 138.7704772949219 148.9999847412109 C 140.8646392822266 148.9999847412109 142.9169311523438 148.7201232910156 144.870361328125 148.1681976318359 C 146.7353820800781 147.6412353515625 148.5199279785156 146.8641967773438 150.1744079589844 145.858642578125 C 153.3710632324219 143.9157867431641 156.0504150390625 141.1379699707031 157.9227294921875 137.8254699707031 C 159.7950744628906 134.5129699707031 160.7931213378906 130.7848510742188 160.8090057373047 127.0440979003906 C 160.8172302246094 125.1080627441406 160.5625915527344 123.1783981323242 160.0522003173828 121.3087844848633 C 159.5176086425781 119.3505325317383 158.6989135742188 117.4479217529297 157.6188812255859 115.6537399291992 L 110.348388671875 37.12791442871094 C 109.3016128540039 35.38899230957031 108.04638671875 33.81729125976562 106.6176147460938 32.4564208984375 C 105.2505416870117 31.15435791015625 103.7170486450195 30.03741455078125 102.0597534179688 29.13662719726562 C 98.85513305664062 27.39483642578125 95.20363616943359 26.47416687011719 91.49997711181641 26.47416687011719 M 91.49999237060547 23.47416687011719 C 99.78003692626953 23.47416687011719 108.0600891113281 27.50968933105469 112.9186401367188 35.58071899414062 L 160.1891174316406 114.1065368652344 C 170.2194976806641 130.7689819335938 158.2190246582031 151.9999847412109 138.7704772949219 151.9999847412109 L 44.22952270507812 151.9999847412109 C 24.78097534179688 151.9999847412109 12.78050231933594 130.7689819335938 22.81086730957031 114.1065368652344 L 70.08134460449219 35.58071899414062 C 74.93988800048828 27.50968933105469 83.21994018554688 23.47416687011719 91.49999237060547 23.47416687011719 Z" stroke="none" fill="#fff"/>
    </g>
  </g>
</svg>
