<svg xmlns="http://www.w3.org/2000/svg" xmlns:xlink="http://www.w3.org/1999/xlink" width="200" height="200" viewBox="0 0 200 200">
  <defs>
    <clipPath id="clip-Notification">
      <rect width="200" height="200"/>
    </clipPath>
  </defs>
  <g id="Notification" clip-path="url(#clip-Notification)">
    <g id="Notification_logo" data-name="Notification logo" transform="translate(48.806 37.243)">
      <g id="Rectangle_3" data-name="Rectangle 3" transform="translate(0.194 -0.243)" fill="none" stroke="#b3b1b1" stroke-width="4">
        <path d="M51.5,0h0A51.5,51.5,0,0,1,103,51.5V99a0,0,0,0,1,0,0H0a0,0,0,0,1,0,0V51.5A51.5,51.5,0,0,1,51.5,0Z" stroke="none"/>
        <path d="M51.5,2h0A49.5,49.5,0,0,1,101,51.5V95.263A1.737,1.737,0,0,1,99.263,97H3.737A1.737,1.737,0,0,1,2,95.263V51.5A49.5,49.5,0,0,1,51.5,2Z" fill="none"/>
      </g>
      <g id="Path_8" data-name="Path 8" transform="translate(41.804 104.511)" fill="#b3b1b1">
        <path d="M 10.45109558105469 20.40219497680664 C 4.964035511016846 20.40219497680664 0.4999955892562866 15.93815517425537 0.4999955892562866 10.45109558105469 C 0.4999955892562866 4.964035511016846 4.964035511016846 0.4999955892562866 10.45109558105469 0.4999955892562866 C 15.93815517425537 0.4999955892562866 20.40219497680664 4.964035511016846 20.40219497680664 10.45109558105469 C 20.40219497680664 15.93815517425537 15.93815517425537 20.40219497680664 10.45109558105469 20.40219497680664 Z" stroke="none"/>
        <path d="M 10.45109558105469 0.9999961853027344 C 5.239745140075684 0.9999961853027344 0.9999961853027344 5.239745140075684 0.9999961853027344 10.45109558105469 C 0.9999961853027344 15.66244506835938 5.239745140075684 19.90219497680664 10.45109558105469 19.90219497680664 C 15.66244506835938 19.90219497680664 19.90219497680664 15.66244506835938 19.90219497680664 10.45109558105469 C 19.90219497680664 5.239745140075684 15.66244506835938 0.9999961853027344 10.45109558105469 0.9999961853027344 M 10.45109558105469 -3.814697265625e-06 C 16.22307586669922 -3.814697265625e-06 20.90219497680664 4.679115295410156 20.90219497680664 10.45109558105469 C 20.90219497680664 16.22307586669922 16.22307586669922 20.90219497680664 10.45109558105469 20.90219497680664 C 4.679115295410156 20.90219497680664 -3.814697265625e-06 16.22307586669922 -3.814697265625e-06 10.45109558105469 C -3.814697265625e-06 4.679115295410156 4.679115295410156 -3.814697265625e-06 10.45109558105469 -3.814697265625e-06 Z" stroke="none" fill="#b3b1b1"/>
      </g>
    </g>
  </g>
</svg>
