<svg xmlns="http://www.w3.org/2000/svg" xmlns:xlink="http://www.w3.org/1999/xlink" width="200" height="200" viewBox="0 0 200 200">
  <defs>
    <clipPath id="clip-Profile">
      <rect width="200" height="200"/>
    </clipPath>
  </defs>
  <g id="Profile" clip-path="url(#clip-Profile)">
    <g id="Profile_logo" data-name="Profile logo" transform="translate(43.493 38.535)">
      <path id="Path_10" data-name="Path 10" d="M32.222,0A32.222,32.222,0,1,1,0,32.222,32.222,32.222,0,0,1,32.222,0Z" transform="translate(24.786)" fill="#b3b1b1"/>
      <g id="Path_238" data-name="Path 238" transform="translate(-0.493 49.465)" fill="none">
        <path d="M40,0H75a40,40,0,0,1,40,40V74H0V40A40,40,0,0,1,40,0Z" stroke="none"/>
        <path d="M 40 4 C 35.13827514648438 4 30.42408752441406 4.951271057128906 25.9884033203125 6.827415466308594 C 21.70201873779297 8.640403747558594 17.85161590576172 11.23669052124023 14.54414367675781 14.54414367675781 C 11.2366943359375 17.85161972045898 8.640403747558594 21.70201873779297 6.827415466308594 25.98839950561523 C 4.951271057128906 30.42409133911133 4 35.13827133178711 4 40 L 4 70 L 111 70 L 111 40 C 111 35.13827133178711 110.0487289428711 30.42409133911133 108.1725845336914 25.98839950561523 C 106.3596038818359 21.70201873779297 103.7633056640625 17.85161972045898 100.4558334350586 14.54414367675781 C 97.14836120605469 11.23669052124023 93.29796600341797 8.640403747558594 89.0115966796875 6.827415466308594 C 84.57591247558594 4.951271057128906 79.86172485351562 4 75 4 L 40 4 M 40 0 L 75 0 C 97.09138488769531 0 115 17.90859985351562 115 40 L 115 74 L 0 74 L 0 40 C 0 17.90859985351562 17.90859985351562 0 40 0 Z" stroke="none" fill="#b3b1b1"/>
      </g>
    </g>
  </g>
</svg>
