<svg xmlns="http://www.w3.org/2000/svg" xmlns:xlink="http://www.w3.org/1999/xlink" width="200" height="200" viewBox="0 0 200 200">
  <defs>
    <clipPath id="clip-Settings">
      <rect width="200" height="200"/>
    </clipPath>
  </defs>
  <g id="Settings" clip-path="url(#clip-Settings)">
    <g id="Settings_logo" data-name="Settings logo" transform="translate(-19.438 -47)">
      <path id="Subtraction_2" data-name="Subtraction 2" d="M30.14,56.369a.992.992,0,0,1-.857-.485L-3.428,1.516A.989.989,0,0,1-3.441.508.988.988,0,0,1-2.571,0H23.243V7.475H38.29V0H62.85a.989.989,0,0,1,.871.508.989.989,0,0,1-.013,1.008L31,55.885A.991.991,0,0,1,30.14,56.369Z" transform="translate(89.011 76)" fill="#b3b1b1"/>
      <path id="Polygon_4" data-name="Polygon 4" d="M14,0,28,22H0Z" transform="translate(132.595 217.278) rotate(180)" fill="#b3b1b1"/>
      <rect id="Rectangle_50" data-name="Rectangle 50" width="28" height="85" transform="translate(104.595 110.278)" fill="#b3b1b1"/>
      <line id="Line_44" data-name="Line 44" y1="16.196" x2="32.599" transform="translate(102.851 113.998)" fill="#b3b1b1" stroke="#fff" stroke-linecap="round" stroke-width="3"/>
      <line id="Line_45" data-name="Line 45" y1="16.196" x2="32.599" transform="translate(102.851 128.949)" fill="#b3b1b1" stroke="#fff" stroke-linecap="round" stroke-width="3"/>
      <line id="Line_46" data-name="Line 46" y1="16.196" x2="32.599" transform="translate(102.851 145.145)" fill="#b3b1b1" stroke="#fff" stroke-linecap="round" stroke-width="3"/>
      <line id="Line_47" data-name="Line 47" y1="16.196" x2="32.599" transform="translate(102.851 160.095)" fill="#b3b1b1" stroke="#fff" stroke-linecap="round" stroke-width="3"/>
      <line id="Line_48" data-name="Line 48" y1="16.196" x2="32.599" transform="translate(102.851 176.291)" fill="#b3b1b1" stroke="#fff" stroke-linecap="round" stroke-width="3"/>
      <line id="Line_49" data-name="Line 49" y1="16.196" x2="32.599" transform="translate(102.851 191.241)" fill="#b3b1b1" stroke="#fff" stroke-linecap="round" stroke-width="3"/>
      <line id="Line_50" data-name="Line 50" y1="21.179" x2="41.375" transform="translate(102.851 92.819)" fill="#b3b1b1" stroke="#fff" stroke-linecap="round" stroke-width="3"/>
    </g>
  </g>
</svg>
