<svg xmlns="http://www.w3.org/2000/svg" xmlns:xlink="http://www.w3.org/1999/xlink" width="200" height="200" viewBox="0 0 200 200">
  <defs>
    <clipPath id="clip-Share_and_chat">
      <rect width="200" height="200"/>
    </clipPath>
  </defs>
  <g id="Share_and_chat" data-name="Share and chat" clip-path="url(#clip-Share_and_chat)">
    <g id="Share" transform="translate(25.001 56)" fill="none">
      <path d="M125,87H75A24.98,24.98,0,0,1,50,62V58H25A24.979,24.979,0,0,1,0,33V25A24.98,24.98,0,0,1,25,0H75a24.979,24.979,0,0,1,25,25v4h25a24.979,24.979,0,0,1,25,25v8a24.98,24.98,0,0,1-25,25ZM50,58H75a24.978,24.978,0,0,0,25-25V29H75A24.979,24.979,0,0,0,50,54v4Z" stroke="none"/>
      <path d="M 125.0000915527344 84.00121307373047 C 127.9713134765625 84.00121307373047 130.8521118164062 83.41992950439453 133.5624694824219 82.27353668212891 C 136.1819000244141 81.16555786132812 138.5350341796875 79.57881927490234 140.5564880371094 77.55736541748047 C 142.5779418945312 75.53590393066406 144.1646881103516 73.18280029296875 145.2726440429688 70.56338500976562 C 146.4190216064453 67.85301208496094 147.0003051757812 64.97221374511719 147.0003051757812 62.00099563598633 L 147.0003051757812 53.99999237060547 C 147.0003051757812 51.0287971496582 146.4190521240234 48.14803695678711 145.2726440429688 45.43779754638672 C 144.1647033691406 42.81847381591797 142.5779876708984 40.46547317504883 140.5565338134766 38.44412612915039 C 138.5350646972656 36.42277526855469 136.1819610595703 34.83612442016602 133.5625457763672 33.72827529907227 C 130.8521881103516 32.58192825317383 127.9713363647461 32.00069046020508 125.0000915527344 32.00069046020508 L 102.9999008178711 32.00069046020508 L 102.9999008178711 33.00121307373047 C 102.9999008178711 36.77988433837891 102.2591781616211 40.44703674316406 100.7983551025391 43.90075302124023 C 99.38800811767578 47.23525619506836 97.36952972412109 50.22932052612305 94.79900360107422 52.79979705810547 C 92.22850799560547 55.37023162841797 89.234375 57.38864517211914 85.89976501464844 58.79899215698242 C 82.44580841064453 60.25979995727539 78.77850341796875 61.00049591064453 74.99970245361328 61.00049591064453 L 52.99950790405273 61.00049591064453 L 52.99950790405273 62.00099563598633 C 52.99950790405273 64.97221374511719 53.58078765869141 67.85301208496094 54.72718048095703 70.56338500976562 C 55.83513641357422 73.18280029296875 57.421875 75.53590393066406 59.44333267211914 77.55736541748047 C 61.46476745605469 79.57879638671875 63.81789779663086 81.16555786132812 66.43730926513672 82.27353668212891 C 69.14768218994141 83.41992950439453 72.02848815917969 84.00121307373047 74.99970245361328 84.00121307373047 L 125.0000915527344 84.00121307373047 M 46.99950790405273 55.00049591064453 L 46.99950790405273 53.99999237060547 C 46.99950790405273 50.22136306762695 47.74026870727539 46.5541877746582 49.20120239257812 43.100341796875 C 50.61166000366211 39.76586532592773 52.63018035888672 36.77182006835938 55.20074462890625 34.20136260986328 C 57.77131271362305 31.63095092773438 60.76546478271484 29.6125373840332 64.10002899169922 28.20219039916992 C 67.55398559570312 26.74138450622559 71.22116088867188 26.00069046020508 74.99970245361328 26.00069046020508 L 96.99990081787109 26.00069046020508 L 96.99990081787109 25.00021171569824 C 96.99990081787109 22.02890777587891 96.41865539550781 19.14808082580566 95.27233123779297 16.43777656555176 C 94.16444396972656 13.8183422088623 92.57776641845703 11.46523284912109 90.55637359619141 9.443798065185547 C 88.53498840332031 7.422363758087158 86.18190002441406 5.835624694824219 83.56248474121094 4.727689743041992 C 80.85209655761719 3.581276655197144 77.97116088867188 3.000015735626221 74.99970245361328 3.000015735626221 L 24.99931144714355 3.000015735626221 C 22.02804946899414 3.000015735626221 19.14724540710449 3.581276655197144 16.43694114685059 4.727667808532715 C 13.81750679016113 5.835646152496338 11.46437644958496 7.422385215759277 9.442941665649414 9.443841934204102 C 7.42148494720459 11.46527671813965 5.83474588394165 13.81840705871582 4.726767539978027 16.43782043457031 C 3.580376386642456 19.14818954467773 2.999093770980835 22.02899360656738 2.999093770980835 25.00021171569824 L 2.999093770980835 33.00121307373047 C 2.999093770980835 35.97240829467773 3.580354690551758 38.85314559936523 4.726746082305908 41.56338500976562 C 5.834724426269531 44.18273162841797 7.421463489532471 46.5357551574707 9.442876815795898 48.55707931518555 C 11.46431159973145 50.57840728759766 13.81742000579834 52.16505813598633 16.43687629699707 53.27293014526367 C 19.14720153808594 54.41925430297852 22.02800750732422 55.00049591064453 24.99931144714355 55.00049591064453 L 46.99950790405273 55.00049591064453 M 125.0000915527344 87.00121307373047 L 74.99970245361328 87.00121307373047 C 71.62478637695312 87.00121307373047 68.35076904296875 86.34018707275391 65.26863861083984 85.03653717041016 C 62.29166030883789 83.77732086181641 59.61800765991211 81.97469329833984 57.32200622558594 79.67868804931641 C 55.02600860595703 77.3826904296875 53.2233772277832 74.70906066894531 51.96417999267578 71.7320556640625 C 50.66053009033203 68.64992523193359 49.99950790405273 65.37593078613281 49.99950790405273 62.00099563598633 L 49.99850845336914 58.00049591064453 L 24.99931144714355 58.00049591064453 C 21.62437629699707 58.00049591064453 18.35037612915039 57.33953857421875 15.26824569702148 56.03594970703125 C 12.29122447967529 54.77684020996094 9.617593765258789 52.97431945800781 7.321615695953369 50.67845153808594 C 5.025615692138672 48.38256072998047 3.222985029220581 45.70901489257812 1.963767647743225 42.73210144042969 C 0.6601154804229736 39.65008163452148 -0.0009062420576810837 36.37612533569336 -0.0009062420576810837 33.00121307373047 L -0.0009062420576810837 25.00021171569824 C -0.0009062420576810837 21.62527656555176 0.6601154804229736 18.35127639770508 1.963767647743225 15.26914596557617 C 3.222985029220581 12.29214572906494 5.025615692138672 9.618515968322754 7.321615695953369 7.322515964508057 C 9.617615699768066 5.026515960693359 12.29124546051025 3.223885297775269 15.26824569702148 1.964667916297913 C 18.35037612915039 0.6610157489776611 21.62437629699707 1.576564682181925e-05 24.99931144714355 1.576564682181925e-05 L 74.99970245361328 1.576564682181925e-05 C 78.37485504150391 1.576564682181925e-05 81.64896392822266 0.6610157489776611 84.73114013671875 1.964667916297913 C 87.70820617675781 3.223885297775269 90.38181304931641 5.026537418365479 92.67772674560547 7.322515964508057 C 94.97365570068359 9.618494033813477 96.77622222900391 12.29212474822998 98.03535461425781 15.26914596557617 C 99.33894348144531 18.35125541687012 99.99990081787109 21.6252555847168 99.99990081787109 25.00021171569824 L 99.99990081787109 29.00069046020508 L 125.0000915527344 29.00069046020508 C 128.3750305175781 29.00069046020508 131.6490325927734 29.66166877746582 134.7311553955078 30.96523284912109 C 137.7081756591797 32.22434234619141 140.3818054199219 34.02688598632812 142.6777954101562 36.32275390625 C 144.9738159179688 38.61864471435547 146.7764434814453 41.29216766357422 148.03564453125 44.26908111572266 C 149.3392944335938 47.35112380981445 150.0003051757812 50.62508010864258 150.0003051757812 53.99999237060547 L 150.0003051757812 62.00099563598633 C 150.0003051757812 65.37593078613281 149.3392944335938 68.64992523193359 148.03564453125 71.7320556640625 C 146.7764434814453 74.70906066894531 144.9738159179688 77.3826904296875 142.6777954101562 79.67868804931641 C 140.3817901611328 81.97469329833984 137.7081604003906 83.77732086181641 134.7311553955078 85.03653717041016 C 131.6490325927734 86.34018707275391 128.3750305175781 87.00121307373047 125.0000915527344 87.00121307373047 Z M 74.99970245361328 29.00069046020508 C 71.62478637695312 29.00069046020508 68.35079193115234 29.66166877746582 65.26863861083984 30.96523284912109 C 62.2916374206543 32.22434234619141 59.61800765991211 34.02688598632812 57.32200622558594 36.32275390625 C 55.02600860595703 38.61864471435547 53.2233772277832 41.29219055175781 51.96420288085938 44.26905822753906 C 50.66053009033203 47.35110092163086 49.99950790405273 50.62508010864258 49.99950790405273 53.99999237060547 L 49.99950790405273 58.00049591064453 L 74.99970245361328 58.00049591064453 C 78.37483215332031 58.00049591064453 81.64896392822266 57.33953857421875 84.73115539550781 56.03594970703125 C 87.70820617675781 54.77684020996094 90.38179016113281 52.97431945800781 92.67772674560547 50.67845153808594 C 94.97365570068359 48.38256072998047 96.77622222900391 45.70903778076172 98.03533172607422 42.73212432861328 C 99.33894348144531 39.65010452270508 99.99990081787109 36.37614440917969 99.99990081787109 33.00121307373047 L 99.99990081787109 29.00069046020508 L 74.99970245361328 29.00069046020508 Z" stroke="none" fill="#fff"/>
    </g>
  </g>
</svg>
