<svg xmlns="http://www.w3.org/2000/svg" xmlns:xlink="http://www.w3.org/1999/xlink" width="200" height="200" viewBox="0 0 200 200">
  <defs>
    <clipPath id="clip-Uplike_Filled">
      <rect width="200" height="200"/>
    </clipPath>
  </defs>
  <g id="Uplike_Filled" data-name="Uplike Filled" clip-path="url(#clip-Uplike_Filled)">
    <g id="Polygon_6" data-name="Polygon 6" transform="translate(9 24)" fill="#fff">
      <path d="M 138.7704772949219 151.7500152587891 L 44.22951889038086 151.7500152587891 C 41.88251876831055 151.7500152587891 39.57863998413086 151.4352874755859 37.38190078735352 150.8146057128906 C 35.2776985168457 150.2200622558594 33.26419830322266 149.3433074951172 31.39731979370117 148.2086639404297 C 27.79972076416016 146.0221252441406 24.78643989562988 142.8996124267578 22.68324089050293 139.1786651611328 C 20.58003997802734 135.4577331542969 19.45890045166016 131.2657165527344 19.44101905822754 127.0558090209961 C 19.43173980712891 124.8711929321289 19.71902084350586 122.6939468383789 20.29486083984375 120.5845489501953 C 20.89603996276855 118.3823928833008 21.81459999084473 116.2462463378906 23.02503967285156 114.2354736328125 L 70.29551696777344 35.70964813232422 C 71.4691162109375 33.76007080078125 72.87892150878906 31.99555015563965 74.48574066162109 30.46512985229492 C 76.02770233154297 28.99649047851562 77.75747680664062 27.7365894317627 79.62699890136719 26.7204704284668 C 83.23342132568359 24.76026916503906 87.33904266357422 23.72418975830078 91.5 23.72418975830078 C 95.66095733642578 23.72418975830078 99.76657867431641 24.76026916503906 103.3730010986328 26.7204704284668 C 105.2425231933594 27.7365894317627 106.972282409668 28.99649047851562 108.5142364501953 30.46512985229492 C 110.1210632324219 31.99555015563965 111.5308609008789 33.76007080078125 112.704460144043 35.70964813232422 L 159.9749450683594 114.2354736328125 C 161.1853790283203 116.2462463378906 162.1039428710938 118.3823928833008 162.7051239013672 120.5845489501953 C 163.2809753417969 122.6939468383789 163.5682525634766 124.8711929321289 163.5589752197266 127.0557861328125 C 163.5411071777344 131.2657165527344 162.4199523925781 135.4577331542969 160.3167572021484 139.1786651611328 C 158.2135620117188 142.8996124267578 155.2002868652344 146.0221252441406 151.6026763916016 148.2086639404297 C 149.7357940673828 149.3433074951172 147.7223052978516 150.2200622558594 145.6181030273438 150.8146057128906 C 143.4213562011719 151.4352874755859 141.1174774169922 151.7500152587891 138.7704772949219 151.7500152587891 Z" stroke="none"/>
      <path d="M 91.5 23.97416687011719 C 87.38059997558594 23.97416687011719 83.31626129150391 24.99977111816406 79.74638366699219 26.94010925292969 C 77.89614105224609 27.94575500488281 76.18421936035156 29.19264221191406 74.65815734863281 30.64614868164062 C 73.06752014160156 32.16114807128906 71.67178344726562 33.90815734863281 70.50971984863281 35.83857727050781 L 23.23924255371094 114.3643951416016 C 22.04063415527344 116.3554916381836 21.13116455078125 118.4704132080078 20.53604125976562 120.650390625 C 19.96614074707031 122.7379913330078 19.68182373046875 124.8927154541016 19.69102478027344 127.0547332763672 C 19.70872497558594 131.2219848632812 20.81866455078125 135.371826171875 22.90087890625 139.0556488037109 C 24.98307800292969 142.7394561767578 27.96601867675781 145.8306274414062 31.52716064453125 147.9950103759766 C 33.37472534179688 149.1179351806641 35.36741638183594 149.9856262207031 37.44987487792969 150.5740051269531 C 39.62449645996094 151.1884460449219 41.90550231933594 151.4999847412109 44.22952270507812 151.4999847412109 L 138.7704772949219 151.4999847412109 C 141.0944976806641 151.4999847412109 143.3755035400391 151.1884460449219 145.5501251220703 150.5740051269531 C 147.6325836181641 149.9856262207031 149.6252746582031 149.1179351806641 151.4728393554688 147.9950103759766 C 155.0339965820312 145.8306274414062 158.0169219970703 142.7394561767578 160.09912109375 139.0556335449219 C 162.1813201904297 135.371826171875 163.2912750244141 131.2219848632812 163.3089752197266 127.0547332763672 C 163.3181610107422 124.8927154541016 163.0338592529297 122.7379913330078 162.4639434814453 120.650390625 C 161.8688201904297 118.4704132080078 160.9593353271484 116.3554916381836 159.7607421875 114.3643951416016 L 112.4902572631836 35.83857727050781 C 111.3282012939453 33.90815734863281 109.9324569702148 32.16116333007812 108.3418197631836 30.64614868164062 C 106.8157577514648 29.19264221191406 105.1038436889648 27.94575500488281 103.2536010742188 26.94010925292969 C 99.68372344970703 24.99977111816406 95.61937713623047 23.97416687011719 91.5 23.97416687011719 M 91.5 23.47416687011719 C 99.78005218505859 23.47416687011719 108.0600967407227 27.50967407226562 112.9186401367188 35.58070373535156 L 160.1891174316406 114.1065292358398 C 170.2194976806641 130.7689819335938 158.2190246582031 151.9999847412109 138.7704772949219 151.9999847412109 L 44.22952270507812 151.9999847412109 C 24.78097534179688 151.9999847412109 12.78050231933594 130.7689819335938 22.81086730957031 114.1065292358398 L 70.08133697509766 35.58070373535156 C 74.93988800048828 27.50967407226562 83.21994781494141 23.47416687011719 91.5 23.47416687011719 Z" stroke="none" fill="#fff"/>
    </g>
  </g>
</svg>
